<svg width="90" height="90" viewBox="0 0 90 90" fill="none" xmlns="http://www.w3.org/2000/svg">
<path d="M89.9963 45.0741C90.3493 67.9048 70.8282 88.6761 48.0384 89.866C27.7001 91.5463 7.70185 77.4372 1.98151 57.9147C-5.54972 34.4825 9.19241 8.33701 32.7406 1.79246C60.8912 -6.61542 90.1139 15.725 89.9963 44.9433V45.0741Z" fill="black"/>
<path d="M11.5195 24.1001C11.6241 23.7405 11.7548 23.3809 11.8987 23.0344C12.5982 21.3934 13.5788 19.5693 14.5006 18.3663C18.5866 13.0182 24.235 9.06269 30.4587 6.64363C31.0209 6.42787 31.5832 6.22519 32.1519 6.03559C34.4989 5.2641 36.9374 4.78683 39.4086 4.66261C41.6379 4.55146 43.9326 4.6953 45.9657 5.61062C47.7897 6.43441 49.3129 7.87277 50.3066 9.60534C51.5422 11.7629 51.941 14.4173 51.2023 16.7906C50.5093 19.0201 48.8226 20.6611 46.6522 21.4784C44.887 22.1452 42.9781 22.1845 41.128 22.4198C40.7488 22.4721 40.3696 22.5245 39.997 22.5768C39.8008 22.6029 39.6112 22.6356 39.4151 22.6618C39.2844 22.6814 39.0621 22.7664 38.9379 22.7141C40.3631 23.2044 41.8602 23.3744 43.3507 23.6098C44.8413 23.8451 46.2991 24.159 47.587 24.937C47.9793 25.1723 48.3454 25.4469 48.6788 25.7608C50.5551 27.4933 51.0977 29.9255 51.7711 32.2726C52.5817 35.1036 53.4839 37.9345 54.3272 40.759C54.3991 40.9943 54.4645 41.2624 54.3272 41.4716C54.1769 41.707 53.85 41.7397 53.5689 41.7462C49.4045 41.8377 45.227 41.4847 41.1345 40.7001C40.6311 40.6021 40.1081 40.4909 39.6962 40.1836C39.2713 39.8698 39.0163 39.3794 38.7875 38.9087C37.5062 36.3327 36.4079 33.6587 35.4991 30.9323C34.95 29.2782 34.3878 27.4737 32.9626 26.4603C31.7531 25.5973 30.158 25.4927 28.6805 25.6562C28.2686 25.7019 27.8437 25.7673 27.5103 26.0092C26.1178 27.003 27.3207 28.7944 27.8372 29.9451C28.7524 31.9719 29.3277 33.5868 29.9488 35.4566C30.328 36.6008 30.0011 36.7119 29.7134 36.8623C29.5827 36.9342 29.2427 36.9931 29.0008 36.98C27.3599 36.9081 25.5882 36.1039 24.0258 35.6135C22.2737 35.0644 20.5413 34.4302 18.8154 33.8025C16.7168 33.031 14.5398 32.2203 12.8597 30.697C11.088 29.0886 10.8788 26.2773 11.5195 24.0936V24.1001ZM29.6677 19.3666C30.0076 19.3666 30.2691 19.3731 30.3345 19.3666C32.8776 19.2816 35.4599 18.6409 37.5127 17.0718C38.4476 16.3591 39.304 15.2476 39.0163 14.1166C38.7221 12.9528 37.3623 12.3905 36.1594 12.4036C34.1132 12.4167 31.6747 12.6455 30.158 14.2016C29.2427 15.1365 27.9679 17.5686 27.6149 19.2228C27.5953 19.3143 28.8505 19.3535 29.6677 19.3731V19.3666Z" fill="white"/>
<path d="M77.2744 36.274C75.2412 37.3593 73.1034 38.2484 70.8937 38.9022C69.1351 39.4253 67.3242 39.8045 65.4872 39.811C63.8201 39.8176 61.6497 39.5626 60.2637 38.5361C59.002 37.5946 58.1259 36.2413 57.6683 34.7441C56.2562 30.1609 55.4129 25.4274 54.9356 20.6612C54.6545 17.8891 54.4322 15.1104 54.308 12.3252C54.2557 11.083 54.0661 9.83426 54.223 8.59204C54.4061 7.12098 55.0468 6.78754 56.5046 7.0033C60.401 7.57864 64.1666 8.9647 67.5269 11.0176C69.2267 12.0572 70.8218 13.2667 72.2797 14.6266C72.6262 14.947 74.2409 16.2611 73.8945 16.6272C73.5414 16.9999 72.685 16.6076 72.3124 16.4769C71.6194 16.2284 70.933 15.9277 70.2334 15.7054C69.7301 15.5485 68.5402 15.202 68.0826 15.6073C67.625 16.0127 67.9649 16.9411 68.1153 17.3857C68.2395 17.7387 68.3768 18.0983 68.6056 18.399C69.6778 19.8439 72.3908 19.3798 73.9141 19.3405C75.4373 19.3013 75.555 19.3144 76.0126 19.8505C76.2545 20.1316 76.5029 20.4128 76.686 20.7397C76.856 21.0339 77.1632 21.4981 76.9213 21.825C76.6206 22.2369 75.8034 22.1323 75.3785 22.1323C73.8945 22.1323 72.4039 22.1192 70.9199 22.1126C70.0112 22.1126 69.2986 22.4003 69.3509 23.4202C69.3901 24.2571 69.6058 25.0874 69.9785 25.8393C70.155 26.1924 70.3707 26.5323 70.6584 26.8004C71.6521 27.7157 73.3061 27.245 74.4567 26.9638C75.5027 26.7089 76.5225 26.3558 77.5359 26.0158C78.1504 25.8132 78.7649 25.4993 79.4187 25.4732C80.2685 25.447 80.517 25.957 80.8765 26.6304C81.7068 28.1734 82.3736 29.8013 82.8705 31.4751C83.0143 31.9654 83.0143 32.3381 82.6417 32.6911C82.1644 33.1423 81.5826 33.5215 81.0531 33.9072C80.0332 34.6395 78.9741 35.3129 77.8823 35.9275C77.6862 36.0386 77.4836 36.1497 77.2809 36.2544L77.2744 36.274Z" fill="white"/>
<path d="M6.66831 56.7771C5.78574 53.2858 5.50463 50.1802 6.31528 46.5974C7.10632 43.093 9.25717 39.2879 12.4148 37.4246C15.5724 35.5612 19.2661 36.215 22.3322 37.9868C27.4969 40.9682 32.3869 46.4797 31.8705 52.9197C31.792 53.8938 31.2233 53.7696 30.4192 53.5408C28.3337 52.9589 27.2877 52.632 25.2349 51.8801C24.3785 51.5663 23.8293 51.3505 23.9405 50.3502C24.2281 47.82 22.731 45.7148 20.6652 44.6948C16.8211 42.7923 15.0298 47.4735 14.9317 51.5663C14.8075 56.8032 16.5269 62.1579 21.5085 65.2307C22.6395 65.9303 25.9606 68.0878 25.9867 65.9107C26.0063 64.335 25.9409 64.1389 25.7775 62.5763C25.6141 61.0137 25.4049 60.3076 23.9339 59.5492C22.8095 58.9739 21.6719 58.4116 20.5279 57.882C19.5603 57.4309 18.9719 57.3067 18.9458 56.1625C18.9 54.8091 18.9066 54.1096 18.9458 52.7497C18.9654 52.122 19.5146 51.9651 20.2794 52.3182C24.385 54.188 26.5685 54.9399 30.9225 56.0906C31.7986 56.3194 32.3412 56.8555 32.3216 57.4636C32.4458 66.5579 32.9296 75.2339 36.2245 83.8248C36.3879 84.2302 36.0741 84.3936 35.4269 84.2171C34.4855 83.9621 34.0148 83.8183 33.0995 83.5045C32.5112 83.3083 31.962 82.8899 31.7463 82.478C31.6809 82.3472 31.6417 82.2884 31.5763 82.1576C31.0991 81.2358 30.1511 82.8899 25.8037 80.2289C17.4814 75.1423 9.84555 67.3883 6.97557 57.8755C6.86444 57.5093 6.75984 57.1367 6.66831 56.7705V56.7771Z" fill="white"/>
<path d="M53.2944 84.9168C50.4571 85.453 48.9927 85.6033 46.0051 85.6164C41.6446 85.636 38.4542 83.1908 37.5259 78.5554C35.4339 67.0811 35.9308 55.9338 37.4475 44.4531C37.539 43.9235 38.147 43.7012 38.9969 43.8777C45.2271 45.1592 48.4697 45.4469 54.7981 45.303C55.661 45.2834 56.2232 45.5907 56.2298 46.1072C56.2429 47.7744 56.2429 48.6374 56.2298 50.3896C56.2298 50.9323 55.6414 51.3311 54.7327 51.3572C53.0264 51.4161 52.17 51.4161 50.4506 51.3768C49.6073 51.3572 48.9993 51.6972 48.9731 52.2595C48.9208 53.3056 48.9012 53.8351 48.8554 54.9008C48.8293 55.4762 49.4111 55.8815 50.2676 55.8946C51.4312 55.9077 52.0131 55.9077 53.1702 55.8815C54.0266 55.8619 54.6019 56.215 54.5823 56.7903C54.5235 58.6536 54.4843 59.5886 54.4123 61.4388C54.3862 62.0076 53.7847 62.4261 52.9283 62.4588C51.732 62.5111 50.3395 62.3215 49.1758 62.5765C48.9339 62.6288 48.6985 62.7595 48.5809 62.9753C48.3521 63.3806 48.4174 64.0344 48.3913 64.4921C48.3521 65.1524 48.3455 65.8128 48.3586 66.4731C48.3847 67.5519 48.4828 68.6241 48.6528 69.6898C48.7835 70.494 49.1692 70.7032 49.9668 70.7947C51.3201 70.9582 52.6407 70.5528 53.9743 70.4678C54.347 70.4417 54.7588 70.4351 55.0334 70.6836C55.3211 70.9451 55.3407 71.3766 55.3341 71.7624C55.3211 74.2533 55.2034 76.7378 54.9811 79.2222C54.87 80.4906 54.7261 81.759 54.5627 83.0208C54.4254 84.0538 54.4385 84.7076 53.2814 84.9299L53.2944 84.9168Z" fill="white"/>
<path d="M57.4058 83.3672C60.2627 70.9777 60.7007 58.4313 60.5242 45.7802C60.498 45.2703 60.851 44.8976 61.4067 44.8257C64.9566 44.3811 66.7283 44.0346 70.1278 42.9623C70.5985 42.812 70.9777 42.8577 71.2261 43.3023C74.2857 48.415 75.6978 51.4291 77.1229 56.6595C77.1949 56.9602 77.3975 57.0321 77.5675 56.9471C77.7963 56.836 78.0578 56.4764 78.1101 55.9991C78.8488 49.8403 78.7246 46.4275 77.5936 40.6283C77.4956 40.1183 77.744 39.6018 78.2212 39.3141C80.444 37.9673 81.4965 37.1958 83.4513 35.4829C83.8697 35.1167 84.2423 35.2083 84.3796 35.7313C86.6154 49.2977 85.0007 63.0994 74.7498 73.3249C74.3837 73.7106 73.9392 74.1552 73.6384 74.4429C71.7099 76.2996 70.6639 77.1561 68.4411 78.6729C68.1338 78.8822 67.99 78.9214 68.1273 78.6272C69.8794 74.9201 69.899 72.488 68.951 66.8261C68.8987 66.5319 68.6961 66.4403 68.5196 66.4992C68.2842 66.5776 68.0031 66.8784 67.9312 67.2707C66.7348 73.5733 65.8065 76.4631 63.5183 81.0855C63.3353 81.4516 62.9561 81.8177 62.5704 81.9943C60.7726 82.818 59.8377 83.1776 57.9288 83.7791C57.5169 83.9099 57.3077 83.7464 57.4058 83.3672Z" fill="white"/>
</svg>
