<svg width="64" height="64" viewBox="0 0 64 64" fill="none" xmlns="http://www.w3.org/2000/svg">
<circle cx="32" cy="32" r="32" fill="#26CCA6"/>
<path fill-rule="evenodd" clip-rule="evenodd" d="M22.0466 13C17.0503 13 13 17.0503 13 22.0466V42.1398C13 47.1361 17.0503 51.1864 22.0466 51.1864H42.1398C47.1361 51.1864 51.1864 47.1361 51.1864 42.1398V22.0466C51.1864 17.0503 47.1361 13 42.1398 13H22.0466ZM11 22.0466C11 15.9457 15.9457 11 22.0466 11H42.1398C48.2407 11 53.1864 15.9457 53.1864 22.0466V42.1398C53.1864 48.2407 48.2407 53.1864 42.1398 53.1864H22.0466C15.9457 53.1864 11 48.2407 11 42.1398V22.0466ZM33.2121 25.0449C31.7479 24.8278 30.2526 25.0779 28.9387 25.7596C27.6248 26.4413 26.5594 27.52 25.8939 28.8422C25.2284 30.1643 24.9968 31.6627 25.232 33.1241C25.4671 34.5855 26.1571 35.9355 27.2038 36.9822C28.2504 38.0288 29.6005 38.7188 31.0619 38.954C32.5233 39.1891 34.0216 38.9575 35.3438 38.292C36.6659 37.6265 37.7446 36.5611 38.4263 35.2472C39.1081 33.9334 39.3582 32.438 39.141 30.9738C38.9196 29.4803 38.2236 28.0976 37.156 27.0299C36.0884 25.9623 34.7057 25.2663 33.2121 25.0449ZM28.0176 23.9843C29.7048 23.1089 31.6252 22.7877 33.5055 23.0665C35.4235 23.3509 37.1992 24.2447 38.5702 25.6157C39.9413 26.9868 40.835 28.7624 41.1194 30.6804C41.3982 32.5607 41.0771 34.4811 40.2016 36.1684C39.3261 37.8556 37.9409 39.2239 36.243 40.0785C34.545 40.9331 32.6209 41.2306 30.7441 40.9286C28.8674 40.6266 27.1337 39.7405 25.7895 38.3964C24.4454 37.0523 23.5594 35.3185 23.2574 33.4418C22.9554 31.5651 23.2528 29.6409 24.1075 27.943C24.9621 26.245 26.3303 24.8598 28.0176 23.9843ZM43.1445 20.042C42.5922 20.042 42.1445 20.4897 42.1445 21.042C42.1445 21.5943 42.5922 22.042 43.1445 22.042H43.1676C43.7199 22.042 44.1676 21.5943 44.1676 21.042C44.1676 20.4897 43.7199 20.042 43.1676 20.042H43.1445Z" fill="#1A1A18"/>
</svg>
