<svg width="588" height="533" viewBox="0 0 588 533" fill="none" xmlns="http://www.w3.org/2000/svg">
<path d="M407.274 203.215L230.153 521.102C226.131 528.32 218.691 532.767 210.639 532.767H22.5584C5.21741 532.767 -5.61966 513.343 3.05294 497.806L274.416 11.6501C283.089 -3.88693 304.765 -3.88249 313.432 11.6581L407.27 179.927C411.288 187.132 411.29 196.008 407.274 203.215Z" fill="#1A1A18"/>
<path d="M432.485 292.344C441.127 276.659 462.981 276.659 471.623 292.344L585.011 498.152C593.571 513.689 582.727 533 565.442 533H338.666C321.382 533 310.538 513.689 319.098 498.152L432.485 292.344Z" fill="#1A1A18"/>
</svg>
