<svg width="64" height="63" viewBox="0 0 64 63" fill="none" xmlns="http://www.w3.org/2000/svg">
<g id="Frame 26">
<g id="logo">
<g id="Vector">
<path d="M44.3292 22.722L25.0507 57.3139C24.6129 58.0993 23.8031 58.5833 22.9267 58.5833H2.45534C0.567881 58.5833 -0.611664 56.4696 0.332293 54.7789L29.8684 1.87639C30.8124 0.185675 33.1717 0.186157 34.115 1.87726L44.3287 20.1879C44.7661 20.972 44.7663 21.9378 44.3292 22.722Z" fill="#26CCA6"/>
<path d="M47.0732 32.421C48.0138 30.7141 50.3925 30.7141 51.3331 32.421L63.6746 54.8166C64.6063 56.5073 63.426 58.6086 61.5447 58.6086H36.8617C34.9803 58.6086 33.8 56.5073 34.7317 54.8166L47.0732 32.421Z" fill="#26CCA6"/>
</g>
</g>
</g>
</svg>
