<svg width="64" height="62" viewBox="0 0 64 62" fill="none" xmlns="http://www.w3.org/2000/svg">
<g id="Frame 26">
<g id="logo">
<g id="Vector">
<path d="M44.3292 22.1134L25.0507 56.7052C24.6129 57.4907 23.8031 57.9747 22.9267 57.9747H2.45534C0.567881 57.9747 -0.611664 55.8609 0.332293 54.1702L29.8684 1.26774C30.8124 -0.422968 33.1717 -0.422485 34.115 1.26861L44.3287 19.5793C44.7661 20.3634 44.7663 21.3291 44.3292 22.1134Z" fill="#1A1A18"/>
<path d="M47.0732 31.8123C48.0138 30.1055 50.3925 30.1055 51.3331 31.8123L63.6746 54.208C64.6063 55.8986 63.426 58 61.5447 58H36.8617C34.9803 58 33.8 55.8986 34.7317 54.2079L47.0732 31.8123Z" fill="#1A1A18"/>
</g>
</g>
</g>
</svg>
