<svg width="46" height="46" viewBox="0 0 46 46" fill="none" xmlns="http://www.w3.org/2000/svg">
<path d="M23.5 15C14.392 15 7 18.827 7 23.5425C7 27.3695 11.851 30.5985 18.55 31.692V35.1431C18.55 35.912 19.441 36.2878 19.9525 35.7411L24.556 30.9744C24.886 30.6327 24.886 30.1031 24.556 29.7614L19.9525 24.9947C19.8362 24.8766 19.6887 24.7969 19.5287 24.7654C19.3687 24.734 19.2032 24.7523 19.0532 24.8181C18.9033 24.8839 18.7754 24.9942 18.6859 25.135C18.5963 25.2759 18.549 25.4411 18.55 25.6097V28.2066C13.3525 27.2499 10.3 24.9605 10.3 23.5425C10.3 21.7315 15.316 18.417 23.5 18.417C31.684 18.417 36.7 21.7315 36.7 23.5425C36.7 24.6701 34.72 26.4127 31.222 27.5403C30.5455 27.7624 30.1 28.4117 30.1 29.1463C30.1 30.291 31.1725 31.1282 32.212 30.7865C36.8815 29.283 40 26.6007 40 23.5425C40 18.827 32.608 15 23.5 15Z" fill="black"/>
</svg>
